<svg version="1" xmlns="http://www.w3.org/2000/svg" width="1365.333" height="1365.333" viewBox="0 0 1024.000000 1024.000000"><path d="M480.5 1.1c-78.2 5.4-150.5 26.6-218 64.1C200.6 99.6 145 148.3 101.9 206c-36.9 49.2-65 106.1-82 165.5-26.1 91.4-26.1 189.6 0 281C50.6 760.1 116.1 854.9 206 922.1c41.6 31.1 92.2 57.8 141.5 74.6 95.6 32.6 203.4 35.7 300.5 8.7 87.1-24.2 165.4-70.3 228.6-134.6 79.8-81.1 129.3-183.7 143.4-296.8 11.2-90.9-3.2-187.1-40.4-269.8-35-78-86.1-143.2-153.6-196.3-56.6-44.5-129.8-79.1-201.5-95.2-45.8-10.3-99.4-14.6-144-11.6zm22.8 273.4c60.2 6.4 104 25.6 139.4 61.2 42.7 43.1 63.3 104.9 61 183.3-1.4 46.9-9.1 82.3-25.1 115.5-29.5 61.5-83.6 99.6-160.1 112.9-25.6 4.4-33.4 4.8-117.2 5.3l-80.3.5V273h84.3c66.8 0 87 .3 98 1.5z"/><path d="M377 512.5v191.7l49.8-.5c52.9-.5 61.2-1.1 83.7-6.1 23.9-5.3 46.3-14.5 64.1-26.2 12.4-8.2 30.2-26.1 38.7-39 15.4-23.2 25.1-51.2 29.1-84 6.5-53-.6-106.8-18.9-143.5-20.2-40.5-58-68-107-78-22.7-4.6-29.7-5.1-85.7-5.6l-53.8-.5v191.7z"/></svg>